HIERARCHY
ROOT mixamorig:Hips
{
	OFFSET -0.000008 104.274872 1.554316
	CHANNELS 6 Xposition Yposition Zposition Xrotation Yrotation Zrotation
	JOINT mixamorig:Spine
	{
		OFFSET -0.000005 10.181595 0.131519
		CHANNELS 6 Xposition Yposition Zposition Xrotation Yrotation Zrotation
		JOINT mixamorig:Spine1
		{
			OFFSET -0.000000 9.893959 -1.470707
			CHANNELS 6 Xposition Yposition Zposition Xrotation Yrotation Zrotation
			JOINT mixamorig:Spine2
			{
				OFFSET -0.000000 9.220757 -1.370641
				CHANNELS 6 Xposition Yposition Zposition Xrotation Yrotation Zrotation
				JOINT mixamorig:Neck
				{
					OFFSET 0.000001 16.740417 -2.049036
					CHANNELS 6 Xposition Yposition Zposition Xrotation Yrotation Zrotation
					JOINT mixamorig:Head
					{
						OFFSET 0.000000 9.617874 1.685006
						CHANNELS 6 Xposition Yposition Zposition Xrotation Yrotation Zrotation
						JOINT mixamorig:HeadTop_End
						{
							OFFSET 0.000002 22.037354 7.501101
							CHANNELS 6 Xposition Yposition Zposition Xrotation Yrotation Zrotation
							End Site
							{
								OFFSET 0.000168 2310.654297 -282.823242
							}
						}
					}
				}
				JOINT mixamorig:RightShoulder
				{
					OFFSET -4.569970 11.014908 -2.160885
					CHANNELS 6 Xposition Yposition Zposition Xrotation Yrotation Zrotation
					JOINT mixamorig:RightArm
					{
						OFFSET -10.592851 -0.524811 -2.232101
						CHANNELS 6 Xposition Yposition Zposition Xrotation Yrotation Zrotation
						JOINT mixamorig:RightForeArm
						{
							OFFSET -27.841511 0.000031 -0.000004
							CHANNELS 6 Xposition Yposition Zposition Xrotation Yrotation Zrotation
							JOINT mixamorig:RightHand
							{
								OFFSET -28.328831 -0.000015 0.000015
								CHANNELS 6 Xposition Yposition Zposition Xrotation Yrotation Zrotation
								JOINT mixamorig:RightHandThumb1
								{
									OFFSET -2.464806 -1.573990 2.681852
									CHANNELS 6 Xposition Yposition Zposition Xrotation Yrotation Zrotation
									JOINT mixamorig:RightHandThumb2
									{
										OFFSET -3.215179 -1.872803 1.924282
										CHANNELS 6 Xposition Yposition Zposition Xrotation Yrotation Zrotation
										JOINT mixamorig:RightHandThumb3
										{
											OFFSET -2.654831 -1.527969 1.512609
											CHANNELS 6 Xposition Yposition Zposition Xrotation Yrotation Zrotation
											JOINT mixamorig:RightHandThumb4
											{
												OFFSET -2.018814 -1.152008 1.108052
												CHANNELS 6 Xposition Yposition Zposition Xrotation Yrotation Zrotation
												End Site
												{
													OFFSET -188.809540 -114.533607 132.431396
												}
											}
										}
									}
								}
								JOINT mixamorig:RightHandIndex1
								{
									OFFSET -9.108284 -0.517868 2.259835
									CHANNELS 6 Xposition Yposition Zposition Xrotation Yrotation Zrotation
									JOINT mixamorig:RightHandIndex2
									{
										OFFSET -3.699989 0.000000 0.001215
										CHANNELS 6 Xposition Yposition Zposition Xrotation Yrotation Zrotation
										JOINT mixamorig:RightHandIndex3
										{
											OFFSET -2.850006 0.000031 -0.000522
											CHANNELS 6 Xposition Yposition Zposition Xrotation Yrotation Zrotation
											JOINT mixamorig:RightHandIndex4
											{
												OFFSET -2.772186 -0.000015 -0.000020
												CHANNELS 6 Xposition Yposition Zposition Xrotation Yrotation Zrotation
												End Site
												{
													OFFSET -277.218445 0.000000 -0.050231
												}
											}
										}
									}
								}
								JOINT mixamorig:RightHandMiddle1
								{
									OFFSET -9.532516 -0.000031 -0.000023
									CHANNELS 6 Xposition Yposition Zposition Xrotation Yrotation Zrotation
									JOINT mixamorig:RightHandMiddle2
									{
										OFFSET -3.700005 -0.000015 0.003713
										CHANNELS 6 Xposition Yposition Zposition Xrotation Yrotation Zrotation
										JOINT mixamorig:RightHandMiddle3
										{
											OFFSET -2.949974 0.000015 -0.002054
											CHANNELS 6 Xposition Yposition Zposition Xrotation Yrotation Zrotation
											JOINT mixamorig:RightHandMiddle4
											{
												OFFSET -2.946640 0.000000 -0.000156
												CHANNELS 6 Xposition Yposition Zposition Xrotation Yrotation Zrotation
												End Site
												{
													OFFSET -294.664337 0.000000 -0.113670
												}
											}
										}
									}
								}
								JOINT mixamorig:RightHandRing1
								{
									OFFSET -9.103600 -0.043076 -1.865134
									CHANNELS 6 Xposition Yposition Zposition Xrotation Yrotation Zrotation
									JOINT mixamorig:RightHandRing2
									{
										OFFSET -3.379288 0.000000 -0.001055
										CHANNELS 6 Xposition Yposition Zposition Xrotation Yrotation Zrotation
										JOINT mixamorig:RightHandRing3
										{
											OFFSET -2.889687 -0.000015 0.000379
											CHANNELS 6 Xposition Yposition Zposition Xrotation Yrotation Zrotation
											JOINT mixamorig:RightHandRing4
											{
												OFFSET -2.638809 -0.000015 0.000941
												CHANNELS 6 Xposition Yposition Zposition Xrotation Yrotation Zrotation
												End Site
												{
													OFFSET -263.880371 0.000000 0.516020
												}
											}
										}
									}
								}
								JOINT mixamorig:RightHandPinky1
								{
									OFFSET -8.076683 -0.486710 -3.806280
									CHANNELS 6 Xposition Yposition Zposition Xrotation Yrotation Zrotation
									JOINT mixamorig:RightHandPinky2
									{
										OFFSET -3.600014 -0.000015 -0.003747
										CHANNELS 6 Xposition Yposition Zposition Xrotation Yrotation Zrotation
										JOINT mixamorig:RightHandPinky3
										{
											OFFSET -2.099983 0.000000 -0.005739
											CHANNELS 6 Xposition Yposition Zposition Xrotation Yrotation Zrotation
											JOINT mixamorig:RightHandPinky4
											{
												OFFSET -2.115768 -0.000031 -0.003680
												CHANNELS 6 Xposition Yposition Zposition Xrotation Yrotation Zrotation
												End Site
												{
													OFFSET -211.577087 0.000000 -0.350686
												}
											}
										}
									}
								}
							}
						}
					}
				}
				JOINT mixamorig:LeftShoulder
				{
					OFFSET 4.570447 11.014725 -2.160855
					CHANNELS 6 Xposition Yposition Zposition Xrotation Yrotation Zrotation
					JOINT mixamorig:LeftArm
					{
						OFFSET 10.592371 -0.524597 -2.232119
						CHANNELS 6 Xposition Yposition Zposition Xrotation Yrotation Zrotation
						JOINT mixamorig:LeftForeArm
						{
							OFFSET 27.841532 -0.000031 0.000026
							CHANNELS 6 Xposition Yposition Zposition Xrotation Yrotation Zrotation
							JOINT mixamorig:LeftHand
							{
								OFFSET 28.328846 -0.000061 0.000022
								CHANNELS 6 Xposition Yposition Zposition Xrotation Yrotation Zrotation
								JOINT mixamorig:LeftHandThumb1
								{
									OFFSET 2.466141 -1.576172 2.681732
									CHANNELS 6 Xposition Yposition Zposition Xrotation Yrotation Zrotation
									JOINT mixamorig:LeftHandThumb2
									{
										OFFSET 3.217812 -1.872070 1.916482
										CHANNELS 6 Xposition Yposition Zposition Xrotation Yrotation Zrotation
										JOINT mixamorig:LeftHandThumb3
										{
											OFFSET 2.656029 -1.528778 1.514513
											CHANNELS 6 Xposition Yposition Zposition Xrotation Yrotation Zrotation
											JOINT mixamorig:LeftHandThumb4
											{
												OFFSET 2.020889 -1.154053 1.115139
												CHANNELS 6 Xposition Yposition Zposition Xrotation Yrotation Zrotation
												End Site
												{
													OFFSET 190.885437 -115.081749 130.048782
												}
											}
										}
									}
								}
								JOINT mixamorig:LeftHandIndex1
								{
									OFFSET 9.109314 -0.518021 2.259871
									CHANNELS 6 Xposition Yposition Zposition Xrotation Yrotation Zrotation
									JOINT mixamorig:LeftHandIndex2
									{
										OFFSET 3.699989 0.000000 -0.000322
										CHANNELS 6 Xposition Yposition Zposition Xrotation Yrotation Zrotation
										JOINT mixamorig:LeftHandIndex3
										{
											OFFSET 2.850006 0.000000 0.000352
											CHANNELS 6 Xposition Yposition Zposition Xrotation Yrotation Zrotation
											JOINT mixamorig:LeftHandIndex4
											{
												OFFSET 2.774864 -0.000031 -0.000027
												CHANNELS 6 Xposition Yposition Zposition Xrotation Yrotation Zrotation
												End Site
												{
													OFFSET 277.486267 0.000000 -0.009857
												}
											}
										}
									}
								}
								JOINT mixamorig:LeftHandMiddle1
								{
									OFFSET 9.533394 0.000061 0.000044
									CHANNELS 6 Xposition Yposition Zposition Xrotation Yrotation Zrotation
									JOINT mixamorig:LeftHandMiddle2
									{
										OFFSET 3.699989 -0.000015 -0.000231
										CHANNELS 6 Xposition Yposition Zposition Xrotation Yrotation Zrotation
										JOINT mixamorig:LeftHandMiddle3
										{
											OFFSET 2.949997 -0.000015 -0.000059
											CHANNELS 6 Xposition Yposition Zposition Xrotation Yrotation Zrotation
											JOINT mixamorig:LeftHandMiddle4
											{
												OFFSET 2.952896 0.000031 0.000063
												CHANNELS 6 Xposition Yposition Zposition Xrotation Yrotation Zrotation
												End Site
												{
													OFFSET 295.289337 0.000000 0.022810
												}
											}
										}
									}
								}
								JOINT mixamorig:LeftHandRing1
								{
									OFFSET 9.104523 -0.042999 -1.865074
									CHANNELS 6 Xposition Yposition Zposition Xrotation Yrotation Zrotation
									JOINT mixamorig:LeftHandRing2
									{
										OFFSET 3.150009 -0.000031 0.000043
										CHANNELS 6 Xposition Yposition Zposition Xrotation Yrotation Zrotation
										JOINT mixamorig:LeftHandRing3
										{
											OFFSET 2.949982 -0.000015 0.000040
											CHANNELS 6 Xposition Yposition Zposition Xrotation Yrotation Zrotation
											JOINT mixamorig:LeftHandRing4
											{
												OFFSET 2.644348 0.000000 0.000057
												CHANNELS 6 Xposition Yposition Zposition Xrotation Yrotation Zrotation
												End Site
												{
													OFFSET 264.434631 0.000000 0.012105
												}
											}
										}
									}
								}
								JOINT mixamorig:LeftHandPinky1
								{
									OFFSET 8.077789 -0.486847 -3.806259
									CHANNELS 6 Xposition Yposition Zposition Xrotation Yrotation Zrotation
									JOINT mixamorig:LeftHandPinky2
									{
										OFFSET 3.599953 0.000031 0.014727
										CHANNELS 6 Xposition Yposition Zposition Xrotation Yrotation Zrotation
										JOINT mixamorig:LeftHandPinky3
										{
											OFFSET 2.100021 0.000015 0.007705
											CHANNELS 6 Xposition Yposition Zposition Xrotation Yrotation Zrotation
											JOINT mixamorig:LeftHandPinky4
											{
												OFFSET 2.125504 0.000031 0.007517
												CHANNELS 6 Xposition Yposition Zposition Xrotation Yrotation Zrotation
												End Site
												{
													OFFSET 212.550781 0.000000 0.625752
												}
											}
										}
									}
								}
							}
						}
					}
				}
			}
		}
	}
	JOINT mixamorig:RightUpLeg
	{
		OFFSET -8.207787 -6.751648 -1.599560
		CHANNELS 6 Xposition Yposition Zposition Xrotation Yrotation Zrotation
		JOINT mixamorig:RightLeg
		{
			OFFSET -0.000002 -44.370117 0.345942
			CHANNELS 6 Xposition Yposition Zposition Xrotation Yrotation Zrotation
			JOINT mixamorig:RightFoot
			{
				OFFSET 0.000003 -44.423679 -3.043532
				CHANNELS 6 Xposition Yposition Zposition Xrotation Yrotation Zrotation
				JOINT mixamorig:RightToeBase
				{
					OFFSET -0.000002 -8.728671 10.710558
					CHANNELS 6 Xposition Yposition Zposition Xrotation Yrotation Zrotation
					JOINT mixamorig:RightToe_End
					{
						OFFSET -0.000001 -0.000679 9.278119
						CHANNELS 6 Xposition Yposition Zposition Xrotation Yrotation Zrotation
						End Site
						{
							OFFSET 0.000000 -0.067690 927.812134
						}
					}
				}
			}
		}
	}
	JOINT mixamorig:LeftUpLeg
	{
		OFFSET 8.207793 -6.751686 -1.599556
		CHANNELS 6 Xposition Yposition Zposition Xrotation Yrotation Zrotation
		JOINT mixamorig:LeftLeg
		{
			OFFSET -0.000004 -44.370014 0.346954
			CHANNELS 6 Xposition Yposition Zposition Xrotation Yrotation Zrotation
			JOINT mixamorig:LeftFoot
			{
				OFFSET -0.000001 -44.423672 -3.044401
				CHANNELS 6 Xposition Yposition Zposition Xrotation Yrotation Zrotation
				JOINT mixamorig:LeftToeBase
				{
					OFFSET -0.000002 -8.728669 10.710558
					CHANNELS 6 Xposition Yposition Zposition Xrotation Yrotation Zrotation
					JOINT mixamorig:LeftToe_End
					{
						OFFSET -0.000003 -0.000679 9.278133
						CHANNELS 6 Xposition Yposition Zposition Xrotation Yrotation Zrotation
						End Site
						{
							OFFSET 0.000000 -0.068021 927.813477
						}
					}
				}
			}
		}
	}
}
MOTION
Frames: 3
Frame Time: 0.033333
0.000006 104.270477 1.554256 0.000010 0.000003 -0.000113 -0.000005 10.181587 0.131522 0.000001 -0.000003 0.000084 -0.000000 9.893967 -1.470711 0.000001 0.000000 -0.000000 -0.000000 9.220802 -1.370642 0.000000 -0.000000 -0.000000 0.000001 16.740433 -2.049030 0.000000 -0.000000 -0.000000 0.000000 9.617859 1.685014 0.000000 0.000000 0.000000 0.000002 22.037384 7.501101 0.000000 -0.000000 0.000000 -4.569968 11.014880 -2.160881 0.000008 0.000001 -0.000038 -10.592739 -0.524848 -2.231716 90.761391 71.972558 -72.698095 -27.841412 0.000049 0.000620 39.500493 123.314298 -67.297007 -28.328831 0.000008 0.000030 -0.000319 -0.000045 0.000007 -2.464403 -1.574134 2.682137 42.277771 -108.177663 88.983110 -3.214960 -1.873023 1.924446 283.931619 -39.612696 330.406166 -2.654620 -1.528286 1.512912 -105.351816 -39.149698 -48.751667 -2.018842 -1.151984 1.108062 -0.000000 -0.000001 0.000002 -9.108286 -0.517860 2.260370 46.515368 164.774994 -145.403280 -3.699782 0.000145 0.001827 10.868375 157.384251 -50.833956 -2.849958 0.000007 0.000039 -11.265289 164.691024 72.552469 -2.772160 -0.000013 -0.000037 0.000000 -0.000000 0.000002 -9.532520 -0.000088 0.000513 53.377710 169.700093 -159.501965 -3.699925 0.000154 0.004307 204.544399 14.996141 -297.740568 -2.949837 0.000156 -0.001459 191.231500 10.988982 88.741916 -2.946625 0.000000 -0.000167 0.000000 -0.000001 -0.000003 -9.103625 -0.043123 -1.864639 56.349856 170.434325 -162.294816 -3.379233 0.000091 -0.000466 205.972223 10.106139 41.989309 -2.889583 0.000252 0.000953 188.778711 4.477574 -305.815054 -2.638815 -0.000012 0.000925 0.000002 -0.000003 -0.000001 -8.076673 -0.486823 -3.805851 69.275200 175.370134 -173.461656 -3.599981 -0.000152 -0.003267 238.545504 0.622140 0.555564 -2.099993 -0.000117 -0.005213 223.365477 -1.158843 -3.436379 -2.115768 -0.000041 -0.003682 -0.000000 -0.000001 -0.000003 4.570446 11.014691 -2.160851 -0.000018 0.000010 -0.000021 10.592531 -0.524540 -2.232388 69.320225 -66.658084 48.899759 27.841698 -0.000094 -0.000093 87.588092 -107.895966 105.585838 28.328840 -0.000030 0.000024 0.000018 -0.000088 -0.000000 2.466144 -1.576138 2.681872 96.361716 131.533912 -144.393600 3.217832 -1.871971 1.916572 300.822186 17.894279 17.701613 2.656053 -1.528736 1.514626 -67.968818 12.642749 20.665294 2.020883 -1.154054 1.115141 0.000001 0.000002 0.000003 9.109286 -0.517868 2.260114 -82.977455 -12.230646 -10.818646 3.699963 0.000103 -0.000090 -78.857280 -12.791390 -10.540556 2.849976 0.000155 0.000587 -80.184556 -11.114430 -9.364477 2.774884 -0.000029 -0.000012 0.000001 -0.000000 -0.000002 9.533290 0.000336 0.000265 -128.995144 -17.092147 -34.962902 3.699757 0.000296 -0.000072 21.873834 -164.052292 108.125890 2.949742 0.000251 0.000072 193.095622 -12.304406 -86.402774 2.952865 -0.000030 0.000072 0.000000 -0.000001 -0.000003 9.104418 -0.042745 -1.864831 -124.950347 -18.725952 -35.117059 3.149832 0.000409 0.000214 203.070540 -9.562827 -44.575263 2.949946 0.000373 0.000170 195.216300 -1.627333 -372.147993 2.644328 0.000012 0.000052 -0.000000 -0.000002 0.000002 8.077738 -0.486716 -3.805992 -88.556538 -17.754184 -17.615586 3.599917 0.000237 0.014992 262.353467 -9.523213 -11.272531 2.099982 0.000266 0.007961 259.206553 -3.077604 -4.179298 2.125510 -0.000043 0.007504 0.000005 0.000002 -0.000003 -8.207786 -6.751667 -1.599560 -0.077001 -0.000003 0.000080 -0.000002 -44.370110 0.345938 0.153719 -0.000000 -0.000000 0.000000 -44.423679 -3.043532 -0.076700 0.000000 -0.000002 -0.000006 -8.728667 10.710559 -0.000009 -0.000000 -0.000000 -0.000001 -0.000679 9.278123 0.000000 -0.000000 -0.000000 8.207792 -6.751710 -1.599556 -0.074518 -0.000003 0.000081 -0.000002 -44.370014 0.346960 0.148822 0.000002 0.000000 -0.000001 -44.423664 -3.044403 -0.074314 0.000000 -0.000002 -0.000004 -8.728671 10.710558 0.000007 -0.000000 -0.000000 0.000000 -0.000680 9.278137 -0.000000 0.000000 -0.000001 
0.000006 104.270477 1.554256 0.000010 0.000003 -0.000113 -0.000005 10.181587 0.131522 0.000001 -0.000003 0.000084 -0.000000 9.893967 -1.470711 0.000001 0.000000 -0.000000 -0.000000 9.220802 -1.370642 0.000000 -0.000000 -0.000000 0.000001 16.740433 -2.049030 0.000000 -0.000000 -0.000000 0.000000 9.617859 1.685014 0.000000 0.000000 0.000000 0.000002 22.037384 7.501101 0.000000 -0.000000 0.000000 -4.569968 11.014880 -2.160881 0.000008 0.000001 -0.000038 -10.592735 -0.524852 -2.231713 93.846710 71.433363 -75.119431 -27.841419 0.000034 0.000632 38.688077 122.885840 -65.646895 -28.328829 -0.000010 0.000035 -0.000318 -0.000042 0.000007 -2.464394 -1.574131 2.682128 41.867495 -107.613004 88.242287 -3.214952 -1.873031 1.924453 279.985245 -42.714220 327.256657 -2.654594 -1.528266 1.512929 -109.574840 -41.916140 -53.042518 -2.018833 -1.151997 1.108066 -0.000003 -0.000002 -0.000001 -9.108275 -0.517828 2.260390 38.874076 167.675912 -145.914192 -3.699802 0.000145 0.001827 14.836769 159.191998 -70.654789 -2.849918 -0.000014 0.000054 -8.622199 163.484621 54.904260 -2.772161 -0.000000 -0.000025 -0.000003 0.000001 -0.000001 -9.532517 -0.000072 0.000518 48.180595 172.671417 -163.490700 -3.699971 0.000123 0.004292 211.827580 9.989248 -326.086864 -2.949937 0.000127 -0.001469 201.631938 8.465201 42.334141 -2.946630 -0.000014 -0.000163 0.000001 0.000001 -0.000001 -9.103618 -0.043112 -1.864604 54.024488 171.928648 -164.297783 -3.379281 -0.000018 -0.000483 222.405877 8.476904 21.659727 -2.889694 0.000085 0.000959 209.474443 6.096132 -336.995332 -2.638825 -0.000014 0.000926 -0.000000 -0.000001 0.000000 -8.076678 -0.486782 -3.805781 58.025729 172.568144 -166.823873 -3.600004 -0.000129 -0.003214 231.943553 4.046636 7.711190 -2.099984 -0.000075 -0.005200 220.995360 2.399015 5.906979 -2.115776 -0.000041 -0.003672 -0.000001 -0.000000 -0.000003 4.570446 11.014691 -2.160851 -0.000018 0.000010 -0.000021 10.592528 -0.524533 -2.232393 69.820222 -65.938216 48.709668 27.841702 -0.000067 -0.000103 88.672801 -105.697457 104.415800 28.328829 -0.000013 0.000027 0.000022 -0.000088 0.000001 2.466148 -1.576169 2.681865 103.545600 134.391840 -149.760463 3.217844 -1.871973 1.916540 301.465835 18.483848 17.496438 2.656067 -1.528742 1.514629 -65.575041 11.531118 19.595193 2.020895 -1.154066 1.115149 0.000001 -0.000000 0.000001 9.109284 -0.517874 2.260095 -80.939893 -11.859597 -10.121543 3.699973 0.000086 -0.000103 -73.017844 -12.828301 -9.521285 2.849998 0.000109 0.000585 -74.810051 -11.698502 -8.958080 2.774877 -0.000031 -0.000022 -0.000001 0.000000 0.000001 9.533320 0.000320 0.000265 -125.328084 -16.797860 -31.873225 3.699768 0.000324 -0.000075 21.371655 -164.820538 109.546713 2.949716 0.000222 0.000031 189.410462 -10.928480 -98.579144 2.952868 -0.000020 0.000044 -0.000000 0.000000 -0.000001 9.104433 -0.042759 -1.864848 -122.000839 -17.564193 -31.148907 3.149861 0.000414 0.000205 202.014060 -8.331937 -41.063569 2.949966 0.000396 0.000144 189.710321 -0.599225 -367.061907 2.644319 0.000043 0.000078 0.000001 0.000000 -0.000001 8.077730 -0.486712 -3.806010 -89.402422 -17.582435 -17.705134 3.599916 0.000230 0.014978 260.189554 -9.562810 -11.754584 2.099985 0.000229 0.007966 255.027543 -3.660398 -5.255834 2.125497 0.000001 0.007513 -0.000001 -0.000002 -0.000000 -8.207786 -6.751667 -1.599560 -0.077001 -0.000003 0.000080 -0.000002 -44.370110 0.345938 0.153719 -0.000000 -0.000000 0.000000 -44.423679 -3.043532 -0.076700 0.000000 -0.000002 -0.000006 -8.728667 10.710559 -0.000009 -0.000000 -0.000000 -0.000001 -0.000679 9.278123 0.000000 -0.000000 -0.000000 8.207792 -6.751710 -1.599556 -0.074518 -0.000003 0.000081 -0.000002 -44.370014 0.346960 0.148822 0.000002 0.000000 -0.000001 -44.423664 -3.044403 -0.074314 0.000000 -0.000002 -0.000004 -8.728671 10.710558 0.000007 -0.000000 -0.000000 0.000000 -0.000680 9.278137 -0.000000 0.000000 -0.000001 
0.000006 104.270477 1.554256 0.000010 0.000003 -0.000113 -0.000005 10.181587 0.131522 0.000001 -0.000003 0.000084 -0.000000 9.893967 -1.470711 0.000001 0.000000 -0.000000 -0.000000 9.220802 -1.370642 0.000000 -0.000000 -0.000000 0.000001 16.740433 -2.049030 0.000000 -0.000000 -0.000000 0.000000 9.617859 1.685014 0.000000 0.000000 0.000000 0.000002 22.037384 7.501101 0.000000 -0.000000 0.000000 -4.569968 11.014880 -2.160881 0.000008 0.000001 -0.000038 -10.592731 -0.524855 -2.231708 97.102723 72.257070 -79.152897 -27.841417 0.000037 0.000625 38.615858 120.937816 -63.470168 -28.328829 0.000004 0.000022 -0.000322 -0.000043 0.000007 -2.464393 -1.574112 2.682148 38.527943 -107.186227 84.693355 -3.214926 -1.873050 1.924471 278.325209 -43.008765 326.139511 -2.654595 -1.528282 1.512965 -113.523905 -40.599864 -55.242649 -2.018826 -1.152001 1.108060 -0.000002 0.000001 0.000002 -9.108286 -0.517865 2.260382 41.947634 169.847571 -153.839247 -3.699958 0.000142 0.001807 32.994209 163.290658 -127.268609 -2.849889 0.000171 0.000075 18.577821 163.430294 -96.643113 -2.772164 -0.000013 -0.000015 -0.000000 0.000001 -0.000006 -9.532468 0.000045 0.000563 32.126427 165.244119 -131.409192 -3.699766 0.000012 0.004297 179.941593 13.784600 -178.850320 -2.950038 0.000052 -0.001501 168.721901 7.109574 -64.281396 -2.946625 0.000030 -0.000150 0.000001 0.000000 0.000000 -9.103592 -0.043027 -1.864573 42.006148 167.820999 -148.999224 -3.379214 0.000141 -0.000461 199.881128 9.723979 51.813798 -2.889613 0.000250 0.000953 188.184170 3.656984 -311.643773 -2.638799 -0.000017 0.000929 -0.000000 0.000000 -0.000001 -8.076682 -0.486748 -3.805780 53.565731 170.199011 -160.902181 -3.599986 -0.000068 -0.003199 225.216212 5.616935 12.795116 -2.099975 -0.000044 -0.005177 216.876032 2.705662 7.547456 -2.115768 -0.000056 -0.003710 0.000000 0.000003 -0.000004 4.570446 11.014691 -2.160851 -0.000018 0.000010 -0.000021 10.592530 -0.524534 -2.232398 70.188342 -66.270436 49.279490 27.841705 -0.000068 -0.000104 89.806934 -104.682047 104.495255 28.328831 -0.000029 0.000032 0.000021 -0.000089 0.000000 2.466139 -1.576166 2.681854 106.316293 135.125389 -151.648846 3.217862 -1.871973 1.916556 302.417772 18.915917 17.145510 2.656073 -1.528726 1.514650 -64.136521 10.391508 18.903845 2.020884 -1.154073 1.115146 -0.000000 0.000007 0.000002 9.109298 -0.517889 2.260106 -76.968958 -12.313963 -9.797343 3.699980 0.000078 -0.000096 -69.921644 -13.571194 -9.518714 2.849984 0.000119 0.000587 -71.921824 -12.127476 -8.813459 2.774881 -0.000031 -0.000014 0.000002 -0.000001 -0.000000 9.533287 0.000317 0.000275 -125.401604 -19.051380 -36.014208 3.699742 0.000285 -0.000080 20.342223 -163.653901 102.644076 2.949718 0.000243 0.000032 190.475152 -11.124596 -93.463933 2.952867 -0.000033 0.000061 -0.000001 0.000003 0.000002 9.104416 -0.042767 -1.864838 -122.260741 -19.686449 -34.939249 3.149802 0.000437 0.000185 198.416613 -9.218820 -52.888532 2.949962 0.000382 0.000133 187.943638 -0.455943 -366.579477 2.644321 0.000030 0.000072 -0.000001 0.000002 -0.000001 8.077724 -0.486719 -3.806015 -86.393191 -19.943348 -19.012603 3.599909 0.000213 0.014992 264.234283 -11.193300 -12.736481 2.099999 0.000209 0.007944 261.222989 -4.227620 -5.363458 2.125498 0.000001 0.007522 0.000000 0.000001 0.000002 -8.207786 -6.751667 -1.599560 -0.077001 -0.000003 0.000080 -0.000002 -44.370110 0.345938 0.153719 -0.000000 -0.000000 0.000000 -44.423679 -3.043532 -0.076700 0.000000 -0.000002 -0.000006 -8.728667 10.710559 -0.000009 -0.000000 -0.000000 -0.000001 -0.000679 9.278123 0.000000 -0.000000 -0.000000 8.207792 -6.751710 -1.599556 -0.074518 -0.000003 0.000081 -0.000002 -44.370014 0.346960 0.148822 0.000002 0.000000 -0.000001 -44.423664 -3.044403 -0.074314 0.000000 -0.000002 -0.000004 -8.728671 10.710558 0.000007 -0.000000 -0.000000 0.000000 -0.000680 9.278137 -0.000000 0.000000 -0.000001 
